<?xml version="1.0" encoding="utf-8"?>
<!-- Generator: Adobe Illustrator 16.0.0, SVG Export Plug-In . SVG Version: 6.00 Build 0)  -->
<!DOCTYPE svg PUBLIC "-//W3C//DTD SVG 1.1//EN" "http://www.w3.org/Graphics/SVG/1.1/DTD/svg11.dtd">
<svg version="1.1" id="Layer_1" xmlns="http://www.w3.org/2000/svg" xmlns:xlink="http://www.w3.org/1999/xlink" x="0px" y="0px"
	 width="440px" height="150px" viewBox="0 0 440 150" enable-background="new 0 0 440 150" xml:space="preserve">
<g>
	<g>
		<g>
			<g>
				<defs>
					<path id="SVGID_1_" d="M421.187,70.121l-29.142-28.028l-29.19-27.976l-0.644,0.644l27.977,29.191l26.547,27.6
						c-9.222,8.863-18.37,17.8-27.563,26.691l-23.145,22.452l0.183-11.764l17.132-16.519l9.122-8.742l9.085-8.78l3.31-3.2
						l-3.31-3.369l-4.428-4.505l-4.442-4.491c-2.99-2.962-5.952-5.956-8.97-8.894c-3.022-2.934-6.015-5.895-9.062-8.802
						l-9.138-8.729l-7.44-7.105l0.258,10.081c0.062,2.381,0.097,4.763,0.181,7.146l0.237,7.146l0.058,1.694l1.052,0.984l5.54,5.182
						c1.836,1.735,3.722,3.425,5.579,5.139l5.595,5.125c1.277,1.182,2.572,2.346,3.87,3.505l-3.308,3.687l-5.018,5.7
						c-1.684,1.893-3.321,3.825-4.98,5.739c-1.663,1.91-3.276,3.868-4.92,5.798l0.644,0.645c1.933-1.641,3.892-3.256,5.8-4.919
						c1.914-1.658,3.848-3.3,5.738-4.98l5.701-5.019l5.649-5.069l1.769-1.585l-1.769-1.961c-1.694-1.876-3.368-3.776-5.085-5.63
						l-5.127-5.596c-1.713-1.857-3.403-3.741-5.138-5.58l-4.023-4.3l0.09-2.65l1.826,1.913c2.908,3.046,5.87,6.039,8.803,9.062
						c2.938,3.02,5.931,5.979,8.894,8.973l4.49,4.439l1.251,1.228l-5.527,5.716l-8.741,9.122l-17.54,18.19l-1.105,1.147l0.022,1.47
						l0.335,21.438l0.127,8.174l5.622-5.793l28.146-29.02c9.372-9.685,18.792-19.317,28.124-29.043l1.48-1.546L421.187,70.121z"/>
				</defs>
				<use xlink:href="#SVGID_1_"  overflow="visible" fill="#B52626"/>
				<clipPath id="SVGID_2_">
					<use xlink:href="#SVGID_1_"  overflow="visible"/>
				</clipPath>
			</g>
		</g>
	</g>
</g>
<g>
	<path fill="#494848" d="M20.164,59.834c3.775-3.334,7.963-5.814,12.563-7.441c4.6-1.627,9.53-2.441,14.793-2.441
		c3.775,0,7.18,0.613,10.214,1.838c3.033,1.227,5.604,2.934,7.713,5.122c2.109,2.19,3.726,4.791,4.851,7.804
		c1.124,3.013,1.687,6.308,1.687,9.883v39.047h-8.557c-1.768,0-3.104-0.241-4.007-0.723c-0.904-0.482-1.657-1.486-2.26-3.014
		l-1.326-3.435c-1.566,1.326-3.073,2.491-4.519,3.495c-1.446,1.005-2.943,1.858-4.489,2.561c-1.547,0.704-3.194,1.226-4.941,1.567
		c-1.747,0.341-3.686,0.512-5.815,0.512c-2.853,0-5.444-0.372-7.773-1.114c-2.331-0.743-4.309-1.838-5.936-3.284
		s-2.883-3.244-3.766-5.394c-0.884-2.148-1.326-4.629-1.326-7.441c0-2.249,0.562-4.529,1.687-6.84
		c1.125-2.31,3.073-4.418,5.845-6.327c2.772-1.907,6.508-3.504,11.208-4.79c4.7-1.285,10.625-2.009,17.776-2.169v-2.651
		c0-3.655-0.753-6.298-2.26-7.925s-3.646-2.44-6.417-2.44c-2.21,0-4.018,0.241-5.423,0.724c-1.407,0.482-2.662,1.024-3.766,1.627
		c-1.105,0.603-2.18,1.145-3.224,1.627c-1.045,0.482-2.29,0.723-3.736,0.723c-1.286,0-2.371-0.32-3.254-0.964
		c-0.884-0.642-1.607-1.405-2.169-2.29L20.164,59.834z M53.788,88.216c-3.736,0.161-6.81,0.481-9.22,0.964s-4.319,1.085-5.725,1.808
		c-1.407,0.724-2.38,1.547-2.922,2.471c-0.542,0.925-0.813,1.929-0.813,3.013c0,2.13,0.582,3.626,1.748,4.489
		c1.165,0.864,2.872,1.296,5.122,1.296c2.411,0,4.52-0.422,6.327-1.266c1.808-0.844,3.635-2.209,5.484-4.098V88.216z"/>
	<path fill="#494848" d="M87.29,113.645V63.992l-4.097-0.844c-1.407-0.321-2.542-0.823-3.405-1.507
		c-0.864-0.683-1.295-1.688-1.295-3.013v-7.352h8.797v-3.556c0-3.574,0.573-6.809,1.718-9.701c1.145-2.893,2.792-5.363,4.941-7.412
		c2.148-2.049,4.77-3.635,7.864-4.76c3.093-1.124,6.607-1.688,10.545-1.688c1.526,0,2.932,0.091,4.218,0.271
		c1.285,0.181,2.631,0.473,4.037,0.873l-0.361,9.1c-0.041,0.643-0.202,1.175-0.482,1.597c-0.282,0.422-0.654,0.764-1.115,1.024
		c-0.462,0.262-0.955,0.452-1.477,0.572c-0.522,0.121-1.045,0.181-1.567,0.181c-1.647,0-3.113,0.161-4.398,0.482
		c-1.286,0.322-2.36,0.895-3.224,1.717c-0.864,0.824-1.517,1.909-1.958,3.254c-0.442,1.347-0.663,3.044-0.663,5.092v2.953h14.643
		v12.774h-14.04v49.593H87.29z"/>
	<path fill="#494848" d="M144.294,58.87c2.45-2.611,5.232-4.75,8.346-6.418c3.112-1.666,6.818-2.501,11.117-2.501
		c3.254,0,6.268,0.724,9.039,2.17s5.161,3.535,7.171,6.267c2.008,2.732,3.585,6.077,4.73,10.033
		c1.145,3.957,1.717,8.446,1.717,13.468c0,4.7-0.653,9.038-1.958,13.016c-1.306,3.977-3.134,7.433-5.483,10.364
		c-2.351,2.933-5.163,5.223-8.437,6.869c-3.274,1.647-6.899,2.471-10.876,2.471c-3.254,0-5.986-0.462-8.195-1.386
		c-2.21-0.924-4.218-2.169-6.026-3.736v23.983h-18.68V51.157h11.569c2.33,0,3.857,1.045,4.58,3.133L144.294,58.87z M145.439,96.651
		c1.406,1.527,2.932,2.612,4.58,3.254c1.646,0.644,3.374,0.965,5.182,0.965c1.728,0,3.314-0.341,4.761-1.024
		c1.446-0.683,2.701-1.778,3.767-3.284c1.063-1.507,1.897-3.465,2.5-5.875c0.603-2.411,0.904-5.343,0.904-8.798
		c0-3.294-0.241-6.065-0.724-8.315c-0.481-2.25-1.155-4.067-2.019-5.454c-0.864-1.386-1.897-2.38-3.103-2.982
		c-1.206-0.603-2.552-0.904-4.038-0.904c-2.732,0-4.981,0.503-6.749,1.507c-1.768,1.005-3.455,2.471-5.061,4.398V96.651z"/>
	<path fill="#494848" d="M214.735,23.438v90.206h-18.68V23.438H214.735z"/>
	<path fill="#494848" d="M226.003,59.834c3.775-3.334,7.963-5.814,12.563-7.441c4.6-1.627,9.53-2.441,14.794-2.441
		c3.775,0,7.18,0.613,10.213,1.838c3.033,1.227,5.604,2.934,7.714,5.122c2.108,2.19,3.726,4.791,4.851,7.804
		c1.124,3.013,1.688,6.308,1.688,9.883v39.047h-8.558c-1.768,0-3.103-0.241-4.007-0.723c-0.903-0.482-1.657-1.486-2.26-3.014
		l-1.325-3.435c-1.567,1.326-3.073,2.491-4.52,3.495c-1.446,1.005-2.943,1.858-4.489,2.561c-1.547,0.704-3.193,1.226-4.941,1.567
		c-1.747,0.341-3.686,0.512-5.814,0.512c-2.854,0-5.444-0.372-7.773-1.114c-2.33-0.743-4.309-1.838-5.936-3.284
		s-2.883-3.244-3.767-5.394c-0.884-2.148-1.325-4.629-1.325-7.441c0-2.249,0.562-4.529,1.688-6.84
		c1.124-2.31,3.073-4.418,5.845-6.327c2.771-1.907,6.508-3.504,11.208-4.79c4.7-1.285,10.625-2.009,17.776-2.169v-2.651
		c0-3.655-0.754-6.298-2.26-7.925c-1.507-1.627-3.646-2.44-6.418-2.44c-2.209,0-4.018,0.241-5.423,0.724
		c-1.406,0.482-2.662,1.024-3.767,1.627s-2.18,1.145-3.224,1.627c-1.045,0.482-2.29,0.723-3.735,0.723
		c-1.286,0-2.371-0.32-3.254-0.964c-0.885-0.642-1.607-1.405-2.17-2.29L226.003,59.834z M259.627,88.216
		c-3.736,0.161-6.81,0.481-9.22,0.964s-4.318,1.085-5.725,1.808c-1.406,0.724-2.38,1.547-2.923,2.471
		c-0.542,0.925-0.813,1.929-0.813,3.013c0,2.13,0.582,3.626,1.748,4.489c1.164,0.864,2.871,1.296,5.122,1.296
		c2.41,0,4.52-0.422,6.327-1.266s3.635-2.209,5.483-4.098V88.216z"/>
	<path fill="#494848" d="M347.061,51.157l-33.383,78.696c-0.563,1.245-1.246,2.159-2.049,2.742c-0.805,0.582-2.09,0.874-3.856,0.874
		h-13.98l12.052-25.309l-24.947-57.004h16.511c1.446,0,2.562,0.321,3.345,0.964s1.355,1.406,1.718,2.29l10.243,26.935
		c0.965,2.451,1.748,4.962,2.351,7.533c0.441-1.286,0.883-2.571,1.325-3.857c0.441-1.285,0.904-2.55,1.386-3.796l9.28-26.814
		c0.361-0.924,1.004-1.697,1.928-2.32c0.924-0.622,1.929-0.934,3.014-0.934H347.061z"/>
</g>
<g>
</g>
</svg>
